<svg width="60" height="46" viewBox="0 0 60 46" fill="none" xmlns="http://www.w3.org/2000/svg">
<path d="M42.3229 8.60459e-07C39.1404 -0.000997266 36.0179 0.866387 33.2918 2.50871C30.5658 4.15103 28.3395 6.50603 26.8529 9.32C25.0287 8.25344 22.9832 7.62167 20.8753 7.47375C18.7674 7.32582 16.6537 7.66573 14.6985 8.46707C12.7432 9.26841 10.9989 10.5096 9.60109 12.0943C8.20326 13.679 7.18948 15.5646 6.63847 17.6046C6.08746 19.6446 6.01405 21.7842 6.42394 23.8571C6.83382 25.9301 7.71597 27.8807 9.0019 29.5575C10.2878 31.2343 11.9429 32.5922 13.8387 33.5256C15.7344 34.4591 17.8198 34.9431 19.9329 34.94L42.3229 35C46.9642 35 51.4154 33.1563 54.6973 29.8744C57.9792 26.5925 59.8229 22.1413 59.8229 17.5C59.8229 12.8587 57.9792 8.40752 54.6973 5.12563C51.4154 1.84375 46.9642 9.2962e-07 42.3229 8.60459e-07V8.60459e-07Z" fill="url(#paint0_linear_22_13)"/>
<path d="M23.6428 34.433C30.9566 32.3896 35.2291 24.804 33.1856 17.4902C31.1422 10.1764 23.5567 5.9039 16.2428 7.94733C8.92902 9.99077 4.65653 17.5763 6.69996 24.8901C8.74339 32.204 16.3289 36.4764 23.6428 34.433Z" fill="url(#paint1_linear_22_13)"/>
<path d="M39.3229 7C36.1404 6.999 33.0179 7.86639 30.2918 9.50871C27.5658 11.151 25.3395 13.506 23.8529 16.32C22.0287 15.2534 19.9832 14.6217 17.8753 14.4737C15.7674 14.3258 13.6537 14.6657 11.6985 15.4671C9.74319 16.2684 7.99892 17.5096 6.60109 19.0943C5.20326 20.679 4.18948 22.5646 3.63847 24.6046C3.08746 26.6446 3.01405 28.7842 3.42394 30.8571C3.83382 32.9301 4.71597 34.8807 6.0019 36.5575C7.28782 38.2343 8.94291 39.5922 10.8387 40.5256C12.7344 41.4591 14.8198 41.9431 16.9329 41.94L39.3229 42C43.9642 42 48.4154 40.1563 51.6973 36.8744C54.9792 33.5925 56.8229 29.1413 56.8229 24.5C56.8229 19.8587 54.9792 15.4075 51.6973 12.1256C48.4154 8.84375 43.9642 7 39.3229 7V7Z" fill="url(#paint2_linear_22_13)"/>
<path d="M20.6428 41.433C27.9566 39.3896 32.2291 31.804 30.1856 24.4902C28.1422 17.1764 20.5567 12.9039 13.2428 14.9473C5.92902 16.9908 1.65653 24.5763 3.69996 31.8901C5.74339 39.204 13.3289 43.4764 20.6428 41.433Z" fill="url(#paint3_linear_22_13)"/>
<defs>
<linearGradient id="paint0_linear_22_13" x1="46.7429" y1="36.49" x2="25.6529" y2="9.18" gradientUnits="userSpaceOnUse">
<stop stop-color="#807D7D"/>
<stop offset="1" stop-color="#CFCFCF"/>
</linearGradient>
<linearGradient id="paint1_linear_22_13" x1="14.3176" y1="16.2932" x2="30.2488" y2="30.1681" gradientUnits="userSpaceOnUse">
<stop offset="0.02" stop-color="white"/>
<stop offset="1" stop-color="white" stop-opacity="0"/>
</linearGradient>
<linearGradient id="paint2_linear_22_13" x1="43.7429" y1="43.49" x2="22.6529" y2="16.18" gradientUnits="userSpaceOnUse">
<stop stop-color="#F2F2F2"/>
<stop offset="1" stop-color="#CFCFCF"/>
</linearGradient>
<linearGradient id="paint3_linear_22_13" x1="11.3176" y1="23.2932" x2="27.2488" y2="37.1681" gradientUnits="userSpaceOnUse">
<stop offset="0.02" stop-color="white"/>
<stop offset="1" stop-color="white" stop-opacity="0"/>
</linearGradient>
</defs>
</svg>
